<svg width="374" height="288" viewBox="0 0 374 288" fill="none" xmlns="http://www.w3.org/2000/svg">
<g id="illustration 1">
<rect width="374" height="288" fill="white"/>
<path id="background" d="M282.199 88.9308C316.894 122.309 359.204 149.548 356.911 174.464C354.616 199.318 307.73 221.79 255.768 242.133C203.726 262.5 146.689 280.737 102.068 269.313C57.4463 257.889 25.2231 216.682 15.8986 175.078C6.57401 133.475 19.93 91.3701 53.3232 58.2333C86.7156 25.0967 139.979 0.773575 180.237 8.40511C220.494 16.0366 247.504 55.4932 282.199 88.9308Z" fill="#CF3115"/>
<path id="Vector" d="M202.902 158.054V255.291" stroke="#A4A4A4" stroke-width="3" stroke-linecap="round" stroke-linejoin="round"/>
<path id="Vector_2" d="M256.657 56.0771H253.063C249.801 56.0771 247.156 58.1663 247.156 60.7438V68.529C247.156 71.1064 249.801 73.1956 253.063 73.1956H256.657C259.919 73.1956 262.563 71.1064 262.563 68.529V60.7438C262.563 58.1663 259.919 56.0771 256.657 56.0771Z" fill="#6BD5E1"/>
<path id="Vector_3" d="M195.469 264.091C194.923 265.168 191.196 271.775 191.196 271.775L203.237 275.4L206.831 265.958L195.469 264.091Z" fill="#E49D75"/>
<path id="Vector_4" d="M264.419 254.751L266.895 261.968L256.056 266.156L248.908 260.28L264.419 254.751Z" fill="#E49D75"/>
<path id="handOne" d="M248.884 116.448C247.648 117.575 237.414 127.274 236.681 128.04C235.947 128.806 205.984 136.001 204.404 136.335C202.823 136.67 197.143 138.622 195.543 138.622C193.943 138.622 188.809 137.28 186.682 137.556C184.556 137.832 177.768 140.971 178.423 142.223C179.077 143.475 252.364 139.295 252.364 139.295L260.353 119.652L248.884 116.448Z" fill="#D38D6A"/>
<path id="Vector_5" d="M263.257 207.061L244.635 282.848" stroke="#E0E0E0" stroke-width="2" stroke-linecap="round" stroke-linejoin="round"/>
<path id="Vector_6" d="M331.883 83.3964H374L334.058 207.061H256.868V199.011L300.088 176.339L331.883 83.3964Z" fill="#E0E0E0"/>
<path id="Vector_7" d="M244.651 199.968C246.787 203.418 264.833 251.841 265.3 254.657C263.002 256.562 253.033 260.801 248.776 261.077C241.564 256.593 221.357 218.942 221.357 218.942C221.357 218.942 228.239 187.703 244.651 199.968Z" fill="#0D7B93"/>
<path id="Vector_8" d="M331.553 153.839C333.118 155.309 338.184 177.005 338.937 182.616C340.094 191.436 318.449 204.355 287.895 204.355C277.808 204.355 244.414 202.577 234.82 199.715C234.328 204.511 210.138 264.313 207.397 266.479C202.892 267.408 196.232 265.476 194.568 264.146C192.905 262.816 206.127 180.201 209.828 174.865C213.53 169.53 288.953 165.521 288.953 165.521L331.553 153.839Z" fill="#0D7B93"/>
<path id="Vector_9" d="M279.197 91.9127C293.359 98.4422 272.182 126.963 269.504 127.69C265.237 127.301 250.375 120.437 247.589 115.386C246.989 112.283 267.102 86.3321 279.197 91.9127Z" fill="#FFC78E"/>
<path id="Vector_10" d="M287.043 80.0751C310.716 80.0751 333.512 151.471 332.577 154.329C330.662 160.189 291.882 170.907 285.66 166.303C269.923 154.667 240.9 80.0751 287.043 80.0751Z" fill="#FFD98E"/>
<path id="Vector_11" d="M329.608 207.061L348.23 282.848" stroke="#E0E0E0" stroke-width="2" stroke-linecap="round" stroke-linejoin="round"/>
<path id="shoeOne" d="M204.147 275.688L197.97 288L164.62 276.259L167.933 270.986L192.289 271.558L204.147 275.688Z" fill="#FFD98E"/>
<path id="Vector_12" d="M267.097 261.077L275.293 272.631L242.72 285.666L239.634 280.304L255.564 265.74L267.097 261.077Z" fill="#FFD98E"/>
<path id="Vector_13" d="M281.437 72.2119C281.973 74.5765 285.374 81.7047 286.851 83.0114C288.328 84.3181 280.378 91.9554 271.538 90.5556C271.272 88.1561 270.223 81.3624 268.835 80.2347C267.447 79.1069 281.437 72.2119 281.437 72.2119Z" fill="#D38D6A"/>
<path id="Vector_14" d="M273.629 80.2298C283.231 77.7547 287.565 67.3949 283.309 57.0909C279.053 46.7871 267.818 40.441 258.216 42.9165C248.614 45.3919 244.279 55.7518 248.535 66.0553C252.791 76.3593 264.026 82.7054 273.629 80.2298Z" fill="#E49D75"/>
<path id="Vector_15" d="M251.36 34.8596C261.166 34.8596 286.364 48.6221 286.364 62.4703C286.364 69.9021 284.7 71.8036 284.07 71.8036C283.44 71.8036 277.356 68.0742 277.356 65.3949C277.356 62.7156 276.159 58.7525 274.993 58.7525C273.024 58.7525 272.733 60.4834 267.782 60.4834C265.886 60.4834 262.327 58.6982 262.327 56.6487C258.306 56.703 258.306 57.7532 252.787 57.7532C246.535 57.7532 231.177 55.2567 231.177 51.4221C231.177 48.8242 235.465 47.0356 239.689 47.6695C236.829 46.46 234.274 43.9634 234.274 42.3106C234.274 39.9968 237.965 38.3984 240.825 38.3984C244.217 38.3984 247.141 39.5262 248.603 40.6306C247.436 39.0362 248.588 34.8596 251.36 34.8596Z" fill="black"/>
<path id="Vector_16" d="M274.21 66.6628C277.019 66.6628 279.295 64.864 279.295 62.6453C279.295 60.4267 277.019 58.6284 274.21 58.6284C271.402 58.6284 269.125 60.4267 269.125 62.6453C269.125 64.864 271.402 66.6628 274.21 66.6628Z" fill="#E49D75"/>
<path id="Vector_17" d="M255.288 152.404H0V158.058H255.288V152.404Z" fill="#808080"/>
<path id="Vector_18" d="M233.329 143.218H127.641H127.376H21.6887L0 152.353H127.376H127.641H255.022L233.329 143.218Z" fill="#E0E0E0"/>
<path id="Vector_19" d="M32.1492 158.054V276.648" stroke="#A4A4A4" stroke-width="3" stroke-linecap="round" stroke-linejoin="round"/>
<path id="Vector_20" d="M52.3808 158.054V255.291" stroke="#A4A4A4" stroke-width="3" stroke-linecap="round" stroke-linejoin="round"/>
<path id="Vector_21" d="M223.139 158.054V276.648" stroke="#A4A4A4" stroke-width="3" stroke-linecap="round" stroke-linejoin="round"/>
<path id="Vector_22" d="M195.819 143.852H150.556V146.302H195.819V143.852Z" fill="white"/>
<path id="Vector_23" d="M102.581 140.803H93.917V148.95H102.581V140.803Z" fill="#A4A4A4"/>
<path id="Vector_24" d="M184.098 151.288C189.704 151.288 194.248 149.609 194.248 147.539C194.248 145.468 189.704 143.79 184.098 143.79C178.492 143.79 173.948 145.468 173.948 147.539C173.948 149.609 178.492 151.288 184.098 151.288Z" fill="#F2F2F2"/>
<g id="handTwo" filter="url(#filter0_d)">
<path d="M256.1 120.344C254.623 121.616 245.585 131.882 244.611 132.967C223.936 134.873 196.616 140.111 195.612 140.138C194.608 140.165 183.119 137.226 181.578 137.44C180.037 137.653 176.887 142.016 177.019 142.915C177.153 143.813 186.2 148.13 196.616 148.021C198.585 147.916 199.23 147.068 201.273 147.068C203.316 147.068 250.006 149.919 258.108 146.575C262.514 144.751 274.894 130.996 274.894 129.965C274.894 128.935 256.1 120.344 256.1 120.344Z" fill="#E49D75"/>
</g>
<path id="Vector_25" d="M285.571 95.2417C299.729 101.771 278.557 130.292 275.879 131.019C271.606 130.63 256.75 123.766 253.959 118.715C253.358 115.611 273.472 89.6611 285.571 95.2417Z" fill="#FFD98E"/>
<path id="Vector_26" d="M90.7223 39.6973H86.5727V145.229H90.7223V39.6973Z" fill="black"/>
<path id="Vector_27" d="M90.7174 39.6973V92.4611V145.229L110.339 139.559V92.4611V45.3634L90.7174 39.6973Z" fill="white"/>
<path id="Vector_28" d="M275.618 56.0771H272.025C268.762 56.0771 266.118 58.1663 266.118 60.7438V68.529C266.118 71.1064 268.762 73.1956 272.025 73.1956H275.618C278.881 73.1956 281.525 71.1064 281.525 68.529V60.7438C281.525 58.1663 278.881 56.0771 275.618 56.0771Z" fill="#6BD5E1"/>
<path id="Vector_29" d="M274.21 58.2356C274.21 56.0771 275.155 43.3645 266.118 39.6117" stroke="white" stroke-width="6" stroke-linecap="round" stroke-linejoin="round"/>
<path id="Vector_30" d="M273.821 73.1956C273.821 74.4364 273.201 81.471 266.438 81.471" stroke="white" stroke-width="6" stroke-linecap="round" stroke-linejoin="round"/>
</g>
<defs>
<filter id="filter0_d" x="173.015" y="120.344" width="105.879" height="35.8562" filterUnits="userSpaceOnUse" color-interpolation-filters="sRGB">
<feFlood flood-opacity="0" result="BackgroundImageFix"/>
<feColorMatrix in="SourceAlpha" type="matrix" values="0 0 0 0 0 0 0 0 0 0 0 0 0 0 0 0 0 0 127 0"/>
<feOffset dy="4"/>
<feGaussianBlur stdDeviation="2"/>
<feColorMatrix type="matrix" values="0 0 0 0 0 0 0 0 0 0 0 0 0 0 0 0 0 0 0.25 0"/>
<feBlend mode="normal" in2="BackgroundImageFix" result="effect1_dropShadow"/>
<feBlend mode="normal" in="SourceGraphic" in2="effect1_dropShadow" result="shape"/>
</filter>
</defs>
</svg>
